<svg viewBox="-1 0 512 512.00004" xmlns="http://www.w3.org/2000/svg"><path d="m489.140625 241.667969c0-11.722657-4.074219-22.492188-10.871094-30.988281 14.648438-20.953126 23.25-46.445313 23.25-73.953126 0-71.367187-57.859375-129.226562-129.230469-129.226562-71.371093 0-129.226562 57.855469-129.226562 129.226562 0 23.132813 6.085938 44.839844 16.730469 63.625-31 23.605469-51.015625 60.898438-51.015625 102.871094 0 71.367188 57.855468 129.226563 129.226562 129.226563 6.652344 0 13.183594-.503907 19.566406-1.472657-.449218 3.0625-.691406 6.195313-.691406 9.382813 0 35.425781 28.714844 64.140625 64.136719 64.140625s64.140625-28.71875 64.140625-64.140625c0-28.03125-17.992188-51.84375-43.050781-60.570313 15.789062-21.429687 25.125-47.90625 25.125-76.566406 0-6.609375-.5-13.101562-1.457031-19.441406 14.03125-8.773438 23.367187-24.351562 23.367187-42.113281zm0 0" fill="#c9caca"/><path d="m88 504.5c0-91.960938 74.546875-166.507812 166.507812-166.507812 91.960938 0 166.507813 74.546874 166.507813 166.507812zm0 0" fill="#535860"/><path d="m270.144531 338.726562c-5.148437-.476562-10.363281-.734374-15.636719-.734374-91.957031 0-166.507812 74.546874-166.507812 166.507812h31.273438c-.003907-86.6875 66.242187-157.890625 150.871093-165.773438zm0 0" fill="#535860"/><path d="m212.4375 354.996094-9.007812-9.011719c-13.402344 4.316406-26.0625 10.289063-37.742188 17.667969l13.195312 13.195312c10.214844-8.5625 21.472657-15.914062 33.554688-21.851562zm0 0" fill="#cb556a"/><path d="m433.394531 186.386719c0 98.792969-80.089843 178.882812-178.886719 178.882812-98.796874 0-178.882812-80.089843-178.882812-178.882812 0-98.796875 80.085938-178.886719 178.882812-178.886719 98.796876 0 178.886719 80.089844 178.886719 178.886719zm0 0" fill="#5c626b"/><path d="m105.625 186.386719c0-93.746094 72.109375-170.632813 163.882812-178.253907-4.945312-.410156-9.945312-.632812-15-.632812-98.792968 0-178.882812 80.089844-178.882812 178.886719 0 98.792969 80.089844 178.886719 178.882812 178.886719 5.054688 0 10.054688-.222657 15-.632813-91.773437-7.621094-163.882812-84.511719-163.882812-178.253906zm0 0" fill="#535860"/><path d="m75.625 186.386719c0 4.378906.164062 8.722656.472656 13.023437.683594.054688 1.371094.089844 2.0625.089844h352.699219c.691406 0 1.375-.035156 2.058594-.089844.3125-4.300781.476562-8.644531.476562-13.023437 0-13.625-1.53125-26.886719-4.414062-39.636719h-348.941407c-2.886718 12.75-4.414062 26.011719-4.414062 39.636719zm0 0" fill="#535860"/><path d="m320.058594 262.457031-22.304688-9.289062c-27.679687-11.527344-58.8125-11.527344-86.492187 0l-22.304688 9.289062c-26.699219 11.117188-56.113281-8.5-56.113281-37.421875 0-22.386718 18.148438-40.535156 40.535156-40.535156h162.261719c22.386719 0 40.535156 18.148438 40.535156 40.535156 0 28.921875-29.417969 48.539063-56.117187 37.421875zm0 0" fill="#f7c2ad"/><path d="m335.640625 184.5h-162.261719c-22.386718 0-40.535156 18.148438-40.535156 40.535156 0 28.707032 28.980469 48.230469 55.519531 37.644532-14.582031-5.859376-25.519531-20.015626-25.519531-37.644532 0-.097656 0-.195312 0-.289062.097656-14.027344 11.722656-25.246094 25.746094-25.246094h178.527344c-7.433594-9.148438-18.769532-15-31.476563-15zm0 0" fill="#efb5a0"/><path d="m78.160156 184.5h352.699219c6.953125 0 12.488281-5.917969 11.921875-12.851562-1.585938-19.515626-6.304688-38.148438-13.65625-55.390626-1.878906-4.402343-6.214844-7.257812-11-7.257812h-327.230469c-4.789062 0-9.121093 2.855469-11 7.257812-7.351562 17.242188-12.070312 35.875-13.660156 55.390626-.5625 6.933593 4.96875 12.851562 11.925781 12.851562zm0 0" fill="#e15f76"/><path d="m96.234375 171.648438c1.589844-19.515626 6.308594-38.148438 13.660156-55.390626 1.878907-4.402343 6.210938-7.257812 11-7.257812h-30c-4.789062 0-9.121093 2.855469-11 7.257812-7.351562 17.242188-12.070312 35.875-13.660156 55.390626-.5625 6.933593 4.96875 12.851562 11.921875 12.851562h30.003906c-6.953125 0-12.488281-5.917969-11.925781-12.851562zm0 0" fill="#cb556a"/><path d="m284.070312 504.5c35.421876 0 64.136719-28.714844 64.136719-64.136719 0-33.957031-26.386719-61.730469-59.773437-63.976562-6.777344-31.496094-27.582032-57.78125-55.554688-71.992188 4.132813-8.167969 6.476563-17.394531 6.476563-27.175781 0-10.515625-2.699219-20.398438-7.429688-29.007812 28.101563-16.515626 49.402344-43.347657 58.703125-75.296876 1.699219.136719 3.410156.226563 5.144532.226563 35.421874 0 64.136718-28.71875 64.136718-64.140625s-28.714844-64.136719-64.136718-64.136719c-11.226563 0-21.773438 2.890625-30.953126 7.957031-23.699218-27.734374-58.929687-45.320312-98.273437-45.320312-71.371094 0-129.226563 57.855469-129.226563 129.226562 0 35.160157 14.046876 67.03125 36.824219 90.328126-24.9375 8.792968-42.816406 32.550781-42.816406 60.496093 0 25.234375 14.582031 47.054688 35.773437 57.523438-34.359374 9.453125-59.601562 40.894531-59.601562 78.253906 0 44.828125 36.339844 81.167969 81.171875 81.167969h195.398437zm0 0" fill="#dfe0e0"/><path d="m348.210938 440.363281c0-33.957031-26.390626-61.730469-59.777344-63.976562-6.777344-31.496094-27.578125-57.78125-55.554688-71.992188 4.132813-8.167969 6.480469-17.394531 6.480469-27.175781 0-10.515625-2.699219-20.398438-7.433594-29.007812 28.101563-16.515626 49.402344-43.347657 58.707031-75.296876 1.695313.136719 3.410157.226563 5.140626.226563 35.425781 0 64.140624-28.71875 64.140624-64.140625s-28.71875-64.136719-64.140624-64.136719c-11.226563 0-21.773438 2.890625-30.949219 7.957031-15.222657-17.808593-35.199219-31.421874-57.960938-38.890624-75.664062 20.855468-131.238281 90.160156-131.238281 172.457031 0 74.984375 46.144531 139.183593 111.585938 165.777343-58.429688 25.851563-99.203126 84.320313-99.210938 152.320313.226562 0 .445312.015625.671875.015625h195.398437c35.421876 0 64.140626-28.714844 64.140626-64.136719zm0 0" fill="#c9caca"/><path d="m496.636719 241.667969c0-11.046875-3.25-21.914063-9.238281-31.136719 14.160156-22.027344 21.621093-47.429688 21.621093-73.804688 0-75.390624-61.335937-136.726562-136.730469-136.726562-18.839843 0-37.042968 3.757812-54.160156 11.15625-20.253906-7.347656-41.746094-11.15625-63.621094-11.15625-16.097656 0-32.066406 2.070312-47.496093 6.125-12.960938-4.015625-26.582031-6.125-40.464844-6.125-33.660156 0-66.003906 12.339844-91.078125 34.75-3.089844 2.761719-3.355469 7.5-.59375 10.589844 2.757812 3.089844 7.5 3.355468 10.589844.59375 22.320312-19.949219 51.117187-30.933594 81.082031-30.933594 35.644531 0 69.386719 15.5625 92.574219 42.691406 2.3125 2.707032 6.214844 3.417969 9.328125 1.695313 8.324219-4.597657 17.769531-7.027344 27.324219-7.027344 31.230468 0 56.640624 25.410156 56.640624 56.640625s-25.410156 56.636719-56.640624 56.636719c-1.367188 0-2.855469-.0625-4.546876-.199219-3.539062-.285156-6.800781 1.964844-7.796874 5.378906-8.363282 28.734375-26.839844 53.117188-52.207032 69.039063-.019531.011719-.039062.023437-.058594.035156-1.003906.628906-2.015624 1.25-3.039062 1.851563-3.5 2.054687-4.730469 6.523437-2.773438 10.082031 4.257813 7.734375 6.507813 16.515625 6.507813 25.390625 0 8.355468-1.910156 16.359375-5.671875 23.792968-1.867188 3.691407-.394531 8.199219 3.296875 10.074219 22.441406 11.398438 39.355469 30.574219 47.824219 53.75.078125.273438.175781.539063.28125.796875 1.421875 4 2.605468 8.117188 3.511718 12.332032.703126 3.273437 3.488282 5.683593 6.828126 5.90625 29.59375 1.992187 52.777343 26.804687 52.777343 56.492187 0 31.230469-25.40625 56.636719-56.636719 56.636719h-195.398437c-40.621094 0-73.671875-33.046875-73.671875-73.671875 0-33.054688 22.242188-62.257813 54.089844-71.019531 3-.824219 5.179687-3.417969 5.476562-6.515626.296875-3.101562-1.351562-6.058593-4.144531-7.4375-19.484375-9.628906-31.589844-29.097656-31.589844-50.804687 0-23.980469 15.191407-45.449219 37.808594-53.417969 2.414063-.851562 4.230469-2.878906 4.808594-5.375.582031-2.492187-.148438-5.113281-1.941407-6.945312-22.367187-22.878906-34.6875-53.09375-34.6875-85.085938 0-26.242187 8.21875-51.230468 23.765626-72.269531 2.460937-3.332031 1.757812-8.027344-1.574219-10.488281-3.328125-2.460938-8.027344-1.757813-10.488281 1.574218-17.46875 23.636719-26.703126 51.710938-26.703126 81.183594 0 32.367188 11.226563 63.113282 31.8125 87.679688-22.980468 12.324218-37.800781 36.507812-37.800781 63.144531 0 22.097656 9.910157 42.355469 26.625 55.765625-30.332031 14.519531-50.457031 45.527344-50.457031 80.015625 0 48.894531 39.777344 88.671875 88.671875 88.671875h195.398437c.914063 0 1.816407-.035156 2.722657-.070312.316406.042968.636719.070312.964843.070312h133.261719c39.5 0 71.636719-32.136719 71.636719-71.636719 0-27.199219-15.410156-51.792969-39.191406-63.875 13.941406-21.886719 21.269531-47.027343 21.269531-73.265625 0-5.292968-.308594-10.609375-.914063-15.867187 14.371094-10.777344 22.816407-27.519531 22.816407-45.6875zm-200.863281-204.304688c-10.054688 0-20.023438 2.128907-29.160157 6.199219-10.210937-10.964844-22.03125-20.054688-34.9375-27.050781 7.542969-1.003907 15.171875-1.511719 22.832031-1.511719 61.441407 0 118.628907 33.585938 148.914063 86.5h-36.402344c-3.761719-35.988281-34.277343-64.136719-71.246093-64.136719zm71.246093 79.136719h48.792969c.007812 0 .015625.003906.027344.003906.011718 0 .023437-.003906.035156-.003906h2.246094c1.792968 0 3.402344 1.0625 4.105468 2.703125 7.183594 16.851563 11.585938 34.703125 13.082032 53.054687.132812 1.640626-.660156 2.765626-1.148438 3.292969-.496094.542969-1.589844 1.449219-3.300781 1.449219h-112.582031c26.226562-8.703125 45.78125-32.164062 48.742187-60.5zm-75.386719 75.5h44.007813c18.214844 0 33.035156 14.820312 33.035156 33.035156 0 11.234375-5.359375 21.253906-14.707031 27.484375-9.347656 6.234375-20.65625 7.332031-31.027344 3.011719l-22.304687-9.285156c-13.179688-5.488282-27.125-8.554688-41.226563-9.128906 13.71875-12.660157 24.671875-27.976563 32.222656-45.117188zm36.226563 305c16.925781-13.113281 27.851563-33.617188 27.851563-56.636719 0-35.675781-26.472657-65.789062-61.222657-70.867187-.085937-.332032-.183593-.660156-.273437-.992188 9.339844-2.027344 18.484375-4.761718 27.355468-8.1875 53.644532 24.992188 88.988282 77.886719 91.769532 136.683594zm133.941406-219.578125c-2.535156 1.585937-3.886719 4.523437-3.441406 7.480469.910156 6.03125 1.375 12.195312 1.375 18.320312 0 26.167969-8.183594 51.105469-23.664063 72.117188-1.414062 1.917968-1.832031 4.394531-1.125 6.667968.703126 2.277344 2.449219 4.082032 4.699219 4.863282 22.734375 7.917968 38.011719 29.414062 38.011719 53.492187 0 28.75-21.539062 52.550781-49.328125 56.148438-2.773437-60.222657-36.746094-114.820313-89.160156-144.054688 13.527343-6.90625 26.242187-15.472656 37.824219-25.578125 3.121093-2.722656 3.441406-7.460937.71875-10.582031-2.722657-3.121094-7.460938-3.441406-10.582032-.71875-22.292968 19.449219-49.105468 32.742187-77.878906 38.667969-9.414062-22.140625-25.675781-40.738282-46.738281-53.125 2.886719-7.613282 4.347656-15.625 4.347656-23.902344 0-8.382812-1.582031-16.691406-4.585937-24.464844 17.859374-2.097656 35.925781.398438 52.597656 7.339844l22.304687 9.285156c5.957031 2.480469 12.234375 3.703125 18.480469 3.703125 9.339844 0 18.613281-2.730469 26.636719-8.082031 13.390625-8.929688 21.382812-23.871094 21.382812-39.964844 0-12.789062-5.03125-24.417968-13.210937-33.035156h55.328125c-1.257813 38.210938-15.296875 75.09375-39.878907 104.417969-2.660156 3.171875-2.242187 7.90625.933594 10.566406 1.402344 1.175781 3.113282 1.75 4.8125 1.75 2.140625 0 4.269532-.914063 5.75-2.683594 27.4375-32.726562 42.804688-74.121093 43.453125-116.839843 1.585938-.949219 3.054688-2.109376 4.328125-3.492188 3.65625-3.964844 5.503906-9.3125 5.066406-14.675781-1.625-19.964844-6.414062-39.386719-14.234374-57.726563-2.742188-6.425781-8.664063-10.808594-15.484376-11.652344-15.03125-29.414062-37.582031-54.332031-65.484374-72.242187-5.453126-3.503906-11.070313-6.699219-16.820313-9.59375 10.984375-3.203125 22.382813-4.828125 34.054687-4.828125 67.121094 0 121.730469 54.605469 121.730469 121.726562 0 25.082032-7.570312 49.167969-21.898437 69.65625-1.90625 2.730469-1.789063 6.386719.292968 8.984376 6.035157 7.542968 9.226563 16.636718 9.226563 26.300781-.003906 14.617187-7.417969 27.984375-19.839844 35.753906zm0 0"/><path d="m318.199219 230.109375c4.140625 0 7.5-3.355469 7.5-7.5v-11.355469c0-4.140625-3.359375-7.5-7.5-7.5-4.144531 0-7.5 3.359375-7.5 7.5v11.355469c0 4.144531 3.355469 7.5 7.5 7.5zm0 0"/></svg>